<svg width="300" height="300" viewBox="0 0 300 300" fill="none" xmlns="http://www.w3.org/2000/svg">
<path d="M210 67C210 59.1207 208.448 51.3185 205.433 44.039C202.417 36.7595 197.998 30.1451 192.426 24.5736C186.855 19.0021 180.241 14.5825 172.961 11.5672C165.681 8.55195 157.879 7 150 7C142.121 7 134.319 8.55195 127.039 11.5672C119.759 14.5825 113.145 19.0021 107.574 24.5736C102.002 30.1451 97.5825 36.7595 94.5672 44.039C91.5519 51.3185 90 59.1207 90 67L102 67C102 60.6966 103.242 54.4548 105.654 48.6312C108.066 42.8076 111.602 37.5161 116.059 33.0589C120.516 28.6017 125.808 25.066 131.631 22.6538C137.455 20.2416 143.697 19 150 19C156.303 19 162.545 20.2416 168.369 22.6538C174.192 25.066 179.484 28.6017 183.941 33.0589C188.398 37.5161 191.934 42.8076 194.346 48.6312C196.758 54.4548 198 60.6966 198 67H210Z" fill="#FF4057"/>
<path d="M112.474 100.12L99.9938 98.04V88.12H123.834C127.46 88.12 132.154 87.9067 137.914 87.48C139.3 87.3733 140.954 87.2667 142.874 87.16C144.794 87.0533 147.034 87 149.594 87C165.7 87 176.954 89.2933 183.354 93.88C189.86 98.36 193.114 105.08 193.114 114.04C193.114 121.933 190.714 128.547 185.914 133.88C181.22 139.107 175.034 142.307 167.354 143.48C177.914 143.373 186.18 145.773 192.154 150.68C198.234 155.587 201.274 162.413 201.274 171.16C201.274 182.253 197.38 191.16 189.594 197.88C181.807 204.6 168.794 207.96 150.554 207.96C145.754 207.96 141.327 207.8 137.274 207.48C136.207 207.48 134.394 207.373 131.834 207.16C129.274 207.053 126.66 207 123.994 207H99.8338V197.4L112.474 195.8V100.12ZM135.674 139.96C136.847 140.067 139.247 140.12 142.874 140.12H150.394C156.9 140.12 161.754 138.093 164.954 134.04C168.154 129.987 169.754 124.28 169.754 116.92C169.754 109.88 168.1 104.76 164.794 101.56C161.487 98.36 155.994 96.76 148.314 96.76C146.287 96.76 142.074 96.9733 135.674 97.4V139.96ZM135.674 196.44C138.127 197.4 142.82 197.88 149.754 197.88C158.82 197.88 165.38 195.747 169.434 191.48C173.487 187.213 175.514 181.027 175.514 172.92C175.514 165.133 173.647 159.587 169.914 156.28C166.287 152.867 160.474 151.16 152.474 151.16C143.514 151.16 137.914 151.267 135.674 151.48V196.44Z" fill="#FF4057"/>
<path d="M210 234C210 241.879 208.448 249.681 205.433 256.961C202.417 264.241 197.998 270.855 192.426 276.426C186.855 281.998 180.241 286.417 172.961 289.433C165.681 292.448 157.879 294 150 294C142.121 294 134.319 292.448 127.039 289.433C119.759 286.417 113.145 281.998 107.574 276.426C102.002 270.855 97.5825 264.241 94.5672 256.961C91.5519 249.681 90 241.879 90 234L102 234C102 240.303 103.242 246.545 105.654 252.369C108.066 258.192 111.602 263.484 116.059 267.941C120.516 272.398 125.808 275.934 131.631 278.346C137.455 280.758 143.697 282 150 282C156.303 282 162.545 280.758 168.369 278.346C174.192 275.934 179.484 272.398 183.941 267.941C188.398 263.484 191.934 258.192 194.346 252.369C196.758 246.545 198 240.303 198 234H210Z" fill="#FF4057"/>
</svg>
