<svg width="300" height="300" viewBox="0 0 300 300" fill="none" xmlns="http://www.w3.org/2000/svg">
<path d="M251 107C251 101.747 248.388 96.5457 243.312 91.6927C238.236 86.8396 230.797 82.4301 221.418 78.7157C212.039 75.0014 200.905 72.055 188.651 70.0448C176.397 68.0346 163.264 67 150 67C136.736 67 123.603 68.0346 111.349 70.0448C99.0951 72.055 87.9609 75.0014 78.5822 78.7157C69.2035 82.4301 61.7639 86.8396 56.6882 91.6927C51.6124 96.5457 49 101.747 49 107L59.1 107C59.1 102.272 61.4512 97.5911 66.0194 93.2234C70.5875 88.8557 77.2831 84.8871 85.724 81.5442C94.1648 78.2012 104.186 75.5495 115.214 73.7403C126.243 71.9312 138.063 71 150 71C161.937 71 173.757 71.9312 184.786 73.7403C195.814 75.5495 205.835 78.2012 214.276 81.5442C222.717 84.8871 229.412 88.8557 233.981 93.2234C238.549 97.5911 240.9 102.272 240.9 107H251Z" fill="#FF4057"/>
<path d="M13.8463 132.592L9.47828 131.864V128.392H17.8223C19.0916 128.392 20.7343 128.317 22.7503 128.168C23.2356 128.131 23.8143 128.093 24.4863 128.056C25.1583 128.019 25.9423 128 26.8383 128C32.4756 128 36.4143 128.803 38.6543 130.408C40.9316 131.976 42.0703 134.328 42.0703 137.464C42.0703 140.227 41.2303 142.541 39.5503 144.408C37.9076 146.237 35.7423 147.357 33.0543 147.768C36.7503 147.731 39.6436 148.571 41.7343 150.288C43.8623 152.005 44.9263 154.395 44.9263 157.456C44.9263 161.339 43.5636 164.456 40.8383 166.808C38.1129 169.16 33.5583 170.336 27.1743 170.336C25.4943 170.336 23.9449 170.28 22.5263 170.168C22.1529 170.168 21.5183 170.131 20.6223 170.056C19.7263 170.019 18.8116 170 17.8783 170H9.42228V166.64L13.8463 166.08V132.592ZM21.9663 146.536C22.3769 146.573 23.2169 146.592 24.4863 146.592H27.1183C29.3956 146.592 31.0943 145.883 32.2143 144.464C33.3343 143.045 33.8943 141.048 33.8943 138.472C33.8943 136.008 33.3156 134.216 32.1583 133.096C31.0009 131.976 29.0783 131.416 26.3903 131.416C25.6809 131.416 24.2063 131.491 21.9663 131.64V146.536ZM21.9663 166.304C22.8249 166.64 24.4676 166.808 26.8943 166.808C30.0676 166.808 32.3636 166.061 33.7823 164.568C35.2009 163.075 35.9103 160.909 35.9103 158.072C35.9103 155.347 35.2569 153.405 33.9503 152.248C32.6809 151.053 30.6463 150.456 27.8463 150.456C24.7103 150.456 22.7503 150.493 21.9663 150.568V166.304ZM68.2827 170.448C62.608 170.448 58.3893 169.029 55.6267 166.192C52.864 163.355 51.4827 158.893 51.4827 152.808V132.592L47.7867 131.864V128.392H64.6987V131.864L59.9387 132.648V153.536C59.9387 162.421 63.0933 166.864 69.4027 166.864C72.5013 166.864 74.7973 165.725 76.2907 163.448C77.784 161.133 78.5307 157.904 78.5307 153.76V132.648L73.7147 131.864V128.392H87.7147V131.864L83.9067 132.592V153.312C83.9067 159.136 82.488 163.448 79.6507 166.248C76.8507 169.048 73.0613 170.448 68.2827 170.448ZM90.5238 166.64L94.9478 166.08V132.592L90.7478 131.808V128.392H98.8678C99.5772 128.392 100.361 128.373 101.22 128.336C102.079 128.299 102.732 128.261 103.18 128.224C105.121 128.075 106.727 128 107.996 128C111.841 128 114.921 128.392 117.236 129.176C119.551 129.96 121.231 131.155 122.276 132.76C123.321 134.365 123.844 136.475 123.844 139.088C123.844 141.664 123.153 144.053 121.772 146.256C120.391 148.459 118.393 149.971 115.78 150.792C117.273 151.427 118.599 152.584 119.756 154.264C120.913 155.944 122.145 158.128 123.452 160.816C124.385 162.645 125.095 163.971 125.58 164.792C126.103 165.576 126.607 166.024 127.092 166.136L128.94 166.696V170H119.42C118.823 170 118.188 169.403 117.516 168.208C116.881 166.976 116.041 165.053 114.996 162.44C113.764 159.379 112.7 156.989 111.804 155.272C110.908 153.555 109.956 152.491 108.948 152.08H103.18V166.08L108.332 166.64V170H90.5238V166.64ZM108.332 148.664C110.46 148.664 112.121 147.899 113.316 146.368C114.511 144.837 115.108 142.541 115.108 139.48C115.108 136.755 114.511 134.739 113.316 133.432C112.159 132.125 110.143 131.472 107.268 131.472C106.223 131.472 105.327 131.528 104.58 131.64C103.871 131.715 103.404 131.752 103.18 131.752V148.552C103.628 148.627 104.711 148.664 106.428 148.664H108.332ZM150.315 170.616C146.209 170.616 142.662 169.72 139.675 167.928C136.726 166.099 134.486 163.597 132.955 160.424C131.425 157.251 130.659 153.667 130.659 149.672C130.659 145.08 131.537 141.141 133.291 137.856C135.083 134.571 137.603 132.088 140.851 130.408C144.099 128.728 147.889 127.888 152.219 127.888C156.289 127.888 160.862 128.467 165.939 129.624L165.323 140.04H159.667L158.155 132.872C157.782 132.499 157.073 132.163 156.027 131.864C154.982 131.528 153.619 131.36 151.939 131.36C148.281 131.36 145.406 132.853 143.315 135.84C141.225 138.789 140.179 143.064 140.179 148.664C140.179 154.152 141.075 158.595 142.867 161.992C144.659 165.352 147.385 167.032 151.043 167.032C152.537 167.032 153.937 166.845 155.243 166.472C156.55 166.099 157.539 165.613 158.211 165.016V152.976L152.275 152.416V148.664H169.299V152.416L166.331 152.92V167.76C165.547 167.797 164.129 168.115 162.075 168.712C159.686 169.347 157.633 169.813 155.915 170.112C154.235 170.448 152.369 170.616 150.315 170.616ZM176.979 132.592L172.499 131.864V128.392H202.347L203.075 137.8H199.155L197.307 132.256L185.211 131.752V146.816L192.995 146.648L193.891 142.056H197.475V155.608H193.891L192.995 150.792L185.211 150.624V166.416L198.763 165.744L202.011 158.576L206.211 159.752L204.755 170H172.555V166.64L176.979 166.08V132.592ZM226.946 170.616C220.861 170.616 216.306 168.712 213.282 164.904C210.258 161.096 208.746 155.907 208.746 149.336C208.746 145.043 209.53 141.272 211.098 138.024C212.704 134.776 214.944 132.275 217.818 130.52C220.693 128.765 223.997 127.888 227.73 127.888C233.89 127.888 238.501 129.717 241.562 133.376C244.661 136.997 246.21 142.075 246.21 148.608C246.21 152.939 245.389 156.784 243.746 160.144C242.141 163.467 239.882 166.043 236.97 167.872C234.058 169.701 230.717 170.616 226.946 170.616ZM227.506 131.304C224.445 131.304 222.056 132.816 220.338 135.84C218.621 138.864 217.762 143.344 217.762 149.28C217.762 155.141 218.584 159.603 220.226 162.664C221.906 165.688 224.296 167.2 227.394 167.2C230.418 167.2 232.789 165.613 234.506 162.44C236.224 159.229 237.082 154.619 237.082 148.608C237.082 142.784 236.261 138.453 234.618 135.616C232.976 132.741 230.605 131.304 227.506 131.304ZM254.473 132.592L250.049 131.864V128.392H262.761L279.449 153.592L282.585 159.976V132.592L277.769 131.864V128.392H291.657V131.864L287.345 132.592V170H280.569L263.153 143.512L259.233 136.12V166.08L264.889 166.64V170H250.049V166.64L254.473 166.08V132.592Z" fill="#FF4057"/>
<path d="M251 194C251 199.253 248.388 204.454 243.312 209.307C238.236 214.16 230.797 218.57 221.418 222.284C212.039 225.999 200.905 228.945 188.651 230.955C176.397 232.965 163.264 234 150 234C136.736 234 123.603 232.965 111.349 230.955C99.0951 228.945 87.9609 225.999 78.5822 222.284C69.2035 218.57 61.7639 214.16 56.6882 209.307C51.6124 204.454 49 199.253 49 194L59.1 194C59.1 198.728 61.4512 203.409 66.0194 207.777C70.5875 212.144 77.2831 216.113 85.724 219.456C94.1648 222.799 104.186 225.45 115.214 227.26C126.243 229.069 138.063 230 150 230C161.937 230 173.757 229.069 184.786 227.26C195.814 225.45 205.835 222.799 214.276 219.456C222.717 216.113 229.412 212.144 233.981 207.777C238.549 203.409 240.9 198.728 240.9 194H251Z" fill="#FF4057"/>
</svg>
